# This file uses centimeters as units for non-parametric coordinates.

mtllib wall.mtl
g default
v -1.415952 3.847802 0.479164
v -1.557991 4.126570 0.479164
v -1.779223 4.347802 0.479164
v -2.057992 4.489842 0.479164
v -2.367009 4.538785 0.479164
v -2.676026 4.489841 0.479164
v -2.954794 4.347802 0.479164
v -3.176026 4.126570 0.479164
v -3.318066 3.847802 0.479164
v -3.367009 3.538785 0.479164
v -3.318066 3.229768 0.479164
v -3.176026 2.950999 0.479164
v -2.954794 2.729768 0.479164
v -2.676026 2.587728 0.479164
v -2.367009 2.538785 0.479164
v -2.057992 2.587728 0.479164
v -1.779224 2.729768 0.479164
v -1.557992 2.950999 0.479164
v -1.415952 3.229768 0.479164
v -1.367009 3.538785 0.479164
v -2.367009 3.538785 2.479164
v -4.462811 -5.384193 0.500000
v 6.305575 -5.384193 0.500000
v -4.462811 5.384193 0.500000
v 6.305575 5.384193 0.500000
v -4.462811 5.384193 -0.500000
v 6.305575 5.384193 -0.500000
v -4.462811 -5.384193 -0.500000
v 6.305575 -5.384193 -0.500000
v 3.629526 3.847802 0.479164
v 3.487486 4.126570 0.479164
v 3.266254 4.347802 0.479164
v 2.987486 4.489842 0.479164
v 2.678469 4.538785 0.479164
v 2.369452 4.489841 0.479164
v 2.090683 4.347802 0.479164
v 1.869452 4.126570 0.479164
v 1.727412 3.847802 0.479164
v 1.678468 3.538785 0.479164
v 1.727412 3.229768 0.479164
v 1.869452 2.950999 0.479164
v 2.090683 2.729768 0.479164
v 2.369452 2.587728 0.479164
v 2.678469 2.538785 0.479164
v 2.987486 2.587728 0.479164
v 3.266254 2.729768 0.479164
v 3.487486 2.950999 0.479164
v 3.629525 3.229768 0.479164
v 3.678469 3.538785 0.479164
v 2.678469 3.538785 2.479164
v 0.726446 0.869977 0.096943
v 0.584406 1.148746 0.096943
v 0.363174 1.369978 0.096943
v 0.084406 1.512017 0.096943
v -0.224611 1.560961 0.096943
v -0.533629 1.512017 0.096943
v -0.812397 1.369978 0.096943
v -1.033629 1.148746 0.096943
v -1.175668 0.869977 0.096943
v -1.224612 0.560960 0.096943
v -1.175668 0.251943 0.096943
v -1.033629 -0.026825 0.096943
v -0.812397 -0.248057 0.096943
v -0.533628 -0.390096 0.096943
v -0.224611 -0.439040 0.096943
v 0.084406 -0.390096 0.096943
v 0.363174 -0.248057 0.096943
v 0.584406 -0.026825 0.096943
v 0.726445 0.251943 0.096943
v 0.775389 0.560960 0.096943
v -0.224611 0.560960 2.096942
v 5.792780 0.869977 0.096943
v 5.650741 1.148746 0.096943
v 5.429509 1.369978 0.096943
v 5.150741 1.512017 0.096943
v 4.841723 1.560961 0.096943
v 4.532706 1.512017 0.096943
v 4.253938 1.369978 0.096943
v 4.032706 1.148746 0.096943
v 3.890667 0.869977 0.096943
v 3.841723 0.560960 0.096943
v 3.890667 0.251943 0.096943
v 4.032706 -0.026825 0.096943
v 4.253938 -0.248057 0.096943
v 4.532706 -0.390096 0.096943
v 4.841723 -0.439040 0.096943
v 5.150741 -0.390096 0.096943
v 5.429509 -0.248057 0.096943
v 5.650741 -0.026825 0.096943
v 5.792780 0.251943 0.096943
v 5.841723 0.560960 0.096943
v 4.841723 0.560960 2.096942
vt 0.916974 0.180575
vt 0.911245 0.169331
vt 0.902321 0.160407
vt 0.891076 0.154678
vt 0.878612 0.152704
vt 0.866147 0.154678
vt 0.854903 0.160407
vt 0.845979 0.169331
vt 0.840249 0.180575
vt 0.838275 0.193040
vt 0.840249 0.205505
vt 0.845979 0.216749
vt 0.854903 0.225673
vt 0.866147 0.231402
vt 0.878612 0.233377
vt 0.891076 0.231402
vt 0.902321 0.225673
vt 0.911245 0.216749
vt 0.916974 0.205505
vt 0.918948 0.193040
vt 0.700648 0.079003
vt 0.703072 0.066618
vt 0.707202 0.054692
vt 0.712955 0.043460
vt 0.720220 0.033141
vt 0.728854 0.023937
vt 0.738688 0.016028
vt 0.749530 0.009569
vt 0.761167 0.004686
vt 0.773372 0.001476
vt 0.785906 0.000000
vt 0.798522 0.000288
vt 0.810975 0.002335
vt 0.823021 0.006099
vt 0.834423 0.011508
vt 0.844959 0.018456
vt 0.854421 0.026806
vt 0.862626 0.036395
vt 0.869412 0.047035
vt 0.874646 0.058519
vt 0.878226 0.070620
vt 0.790159 0.090095
vt 0.040038 0.057631
vt 0.471184 0.004897
vt 0.523919 0.436043
vt 0.092772 0.488778
vt 0.528816 0.476081
vt 0.097670 0.528816
vt 0.581550 0.907228
vt 0.150404 0.959962
vt 0.586447 0.947266
vt 0.155301 1.000000
vt 0.511222 0.000000
vt 0.563957 0.431146
vt 0.000000 0.062529
vt 0.052734 0.493675
vt 0.754324 0.189384
vt 0.756298 0.201849
vt 0.754324 0.214314
vt 0.748594 0.225558
vt 0.739671 0.234482
vt 0.728426 0.240211
vt 0.715961 0.242186
vt 0.703497 0.240211
vt 0.692252 0.234482
vt 0.683328 0.225558
vt 0.677599 0.214314
vt 0.675625 0.201849
vt 0.677599 0.189384
vt 0.683328 0.178140
vt 0.692252 0.169216
vt 0.703497 0.163487
vt 0.715961 0.161513
vt 0.728426 0.163487
vt 0.739671 0.169216
vt 0.748594 0.178140
vt 0.522358 0.079003
vt 0.524782 0.066618
vt 0.611869 0.090095
vt 0.528912 0.054692
vt 0.534665 0.043460
vt 0.541930 0.033141
vt 0.550564 0.023937
vt 0.560398 0.016028
vt 0.571240 0.009569
vt 0.582877 0.004686
vt 0.595082 0.001476
vt 0.607616 0.000000
vt 0.620233 0.000288
vt 0.632686 0.002335
vt 0.644731 0.006099
vt 0.656133 0.011508
vt 0.666669 0.018456
vt 0.676131 0.026806
vt 0.684336 0.036395
vt 0.691122 0.047035
vt 0.696356 0.058519
vt 0.699936 0.070620
vt 0.835649 0.166313
vt 0.837623 0.178778
vt 0.835649 0.191242
vt 0.829920 0.202487
vt 0.820996 0.211411
vt 0.809751 0.217140
vt 0.797287 0.219114
vt 0.784822 0.217140
vt 0.773577 0.211411
vt 0.764654 0.202487
vt 0.758924 0.191242
vt 0.756950 0.178778
vt 0.758924 0.166313
vt 0.764654 0.155068
vt 0.773577 0.146145
vt 0.784822 0.140415
vt 0.797287 0.138441
vt 0.809751 0.140415
vt 0.820996 0.146145
vt 0.829920 0.155068
vt 0.591172 0.156770
vt 0.593596 0.144385
vt 0.680682 0.167862
vt 0.597725 0.132460
vt 0.603479 0.121228
vt 0.610744 0.110908
vt 0.619378 0.101704
vt 0.629212 0.093795
vt 0.640054 0.087336
vt 0.651691 0.082453
vt 0.663896 0.079243
vt 0.676429 0.077767
vt 0.689046 0.078056
vt 0.701499 0.080102
vt 0.713545 0.083867
vt 0.724947 0.089276
vt 0.735482 0.096223
vt 0.744945 0.104573
vt 0.753150 0.114162
vt 0.759935 0.124803
vt 0.765170 0.136286
vt 0.768750 0.148388
vt 0.616696 0.182858
vt 0.618671 0.195322
vt 0.616696 0.207787
vt 0.610967 0.219032
vt 0.602043 0.227955
vt 0.590799 0.233685
vt 0.578334 0.235659
vt 0.565869 0.233685
vt 0.554625 0.227955
vt 0.545701 0.219032
vt 0.539972 0.207787
vt 0.537998 0.195322
vt 0.539972 0.182858
vt 0.545701 0.171613
vt 0.554625 0.162690
vt 0.565869 0.156960
vt 0.578334 0.154986
vt 0.590799 0.156960
vt 0.602043 0.162690
vt 0.610967 0.171613
vt 0.819508 0.145007
vt 0.821932 0.132622
vt 0.909018 0.156099
vt 0.826062 0.120696
vt 0.831815 0.109464
vt 0.839080 0.099145
vt 0.847714 0.089940
vt 0.857548 0.082031
vt 0.868390 0.075572
vt 0.880027 0.070690
vt 0.892232 0.067479
vt 0.904766 0.066004
vt 0.917382 0.066292
vt 0.929835 0.068339
vt 0.941881 0.072103
vt 0.953283 0.077512
vt 0.963818 0.084460
vt 0.973281 0.092810
vt 0.981486 0.102399
vt 0.988272 0.113039
vt 0.993506 0.124523
vt 0.997086 0.136624
vn -0.000000 0.000000 -1.000000
vn -0.000000 0.000000 -1.000000
vn -0.000000 0.000000 -1.000000
vn -0.000000 0.000000 -1.000000
vn -0.000000 0.000000 -1.000000
vn -0.000000 0.000000 -1.000000
vn -0.000000 0.000000 -1.000000
vn -0.000000 0.000000 -1.000000
vn -0.000000 0.000000 -1.000000
vn -0.000000 0.000000 -1.000000
vn -0.000000 0.000000 -1.000000
vn -0.000000 0.000000 -1.000000
vn -0.000000 0.000000 -1.000000
vn -0.000000 0.000000 -1.000000
vn -0.000000 0.000000 -1.000000
vn -0.000000 0.000000 -1.000000
vn -0.000000 0.000000 -1.000000
vn -0.000000 0.000000 -1.000000
vn -0.000000 0.000000 -1.000000
vn -0.000000 0.000000 -1.000000
vn 0.850651 0.276392 0.447214
vn 0.723607 0.525731 0.447214
vn 0.000001 -0.000001 1.000000
vn 0.525731 0.723606 0.447214
vn 0.276393 0.850651 0.447214
vn -0.000001 0.894427 0.447214
vn -0.276393 0.850651 0.447214
vn -0.525731 0.723607 0.447214
vn -0.723607 0.525731 0.447214
vn -0.850651 0.276394 0.447213
vn -0.894427 0.000000 0.447213
vn -0.850651 -0.276394 0.447213
vn -0.723607 -0.525731 0.447214
vn -0.525731 -0.723607 0.447214
vn -0.276393 -0.850651 0.447214
vn 0.000000 -0.894427 0.447214
vn 0.276394 -0.850651 0.447214
vn 0.525731 -0.723607 0.447214
vn 0.723607 -0.525731 0.447214
vn 0.850651 -0.276393 0.447214
vn 0.894427 -0.000001 0.447214
vn 0.000000 0.000000 1.000000
vn 0.000000 0.000000 1.000000
vn 0.000000 0.000000 1.000000
vn 0.000000 0.000000 1.000000
vn 0.000000 1.000000 0.000000
vn 0.000000 1.000000 0.000000
vn 0.000000 1.000000 0.000000
vn 0.000000 1.000000 0.000000
vn 0.000000 0.000000 -1.000000
vn 0.000000 0.000000 -1.000000
vn 0.000000 0.000000 -1.000000
vn 0.000000 0.000000 -1.000000
vn 0.000000 -1.000000 0.000000
vn 0.000000 -1.000000 0.000000
vn 0.000000 -1.000000 0.000000
vn 0.000000 -1.000000 0.000000
vn 1.000000 0.000000 0.000000
vn 1.000000 0.000000 0.000000
vn 1.000000 0.000000 0.000000
vn 1.000000 0.000000 0.000000
vn -1.000000 0.000000 0.000000
vn -1.000000 0.000000 0.000000
vn -1.000000 0.000000 0.000000
vn -1.000000 0.000000 0.000000
vn -0.000000 0.000000 -1.000000
vn -0.000000 0.000000 -1.000000
vn -0.000000 0.000000 -1.000000
vn -0.000000 0.000000 -1.000000
vn -0.000000 0.000000 -1.000000
vn -0.000000 0.000000 -1.000000
vn -0.000000 0.000000 -1.000000
vn -0.000000 0.000000 -1.000000
vn -0.000000 0.000000 -1.000000
vn -0.000000 0.000000 -1.000000
vn -0.000000 0.000000 -1.000000
vn -0.000000 0.000000 -1.000000
vn -0.000000 0.000000 -1.000000
vn -0.000000 0.000000 -1.000000
vn -0.000000 0.000000 -1.000000
vn -0.000000 0.000000 -1.000000
vn -0.000000 0.000000 -1.000000
vn -0.000000 0.000000 -1.000000
vn -0.000000 0.000000 -1.000000
vn -0.000000 0.000000 -1.000000
vn 0.850651 0.276392 0.447214
vn 0.723606 0.525731 0.447214
vn 0.000001 -0.000001 1.000000
vn 0.525731 0.723607 0.447214
vn 0.276393 0.850651 0.447214
vn -0.000001 0.894427 0.447214
vn -0.276393 0.850651 0.447213
vn -0.525731 0.723607 0.447214
vn -0.723607 0.525730 0.447214
vn -0.850651 0.276393 0.447214
vn -0.894427 0.000000 0.447213
vn -0.850651 -0.276393 0.447214
vn -0.723607 -0.525731 0.447214
vn -0.525731 -0.723607 0.447214
vn -0.276393 -0.850651 0.447214
vn -0.000000 -0.894427 0.447213
vn 0.276394 -0.850651 0.447214
vn 0.525731 -0.723607 0.447214
vn 0.723607 -0.525731 0.447213
vn 0.850651 -0.276393 0.447214
vn 0.894427 -0.000001 0.447214
vn 0.000000 0.000000 -1.000000
vn 0.000000 0.000000 -1.000000
vn 0.000000 0.000000 -1.000000
vn 0.000000 0.000000 -1.000000
vn 0.000000 0.000000 -1.000000
vn 0.000000 0.000000 -1.000000
vn 0.000000 0.000000 -1.000000
vn 0.000000 0.000000 -1.000000
vn 0.000000 0.000000 -1.000000
vn 0.000000 0.000000 -1.000000
vn 0.000000 0.000000 -1.000000
vn 0.000000 0.000000 -1.000000
vn 0.000000 0.000000 -1.000000
vn 0.000000 0.000000 -1.000000
vn 0.000000 0.000000 -1.000000
vn 0.000000 0.000000 -1.000000
vn 0.000000 0.000000 -1.000000
vn 0.000000 0.000000 -1.000000
vn 0.000000 0.000000 -1.000000
vn 0.000000 0.000000 -1.000000
vn 0.850651 0.276392 0.447214
vn 0.723607 0.525731 0.447214
vn -0.000000 -0.000000 1.000000
vn 0.525731 0.723607 0.447214
vn 0.276393 0.850651 0.447214
vn 0.000000 0.894427 0.447214
vn -0.276393 0.850651 0.447214
vn -0.525731 0.723607 0.447214
vn -0.723607 0.525731 0.447214
vn -0.850651 0.276393 0.447214
vn -0.894427 0.000000 0.447214
vn -0.850651 -0.276393 0.447214
vn -0.723607 -0.525731 0.447214
vn -0.525731 -0.723607 0.447214
vn -0.276393 -0.850651 0.447214
vn -0.000000 -0.894427 0.447214
vn 0.276393 -0.850651 0.447214
vn 0.525731 -0.723607 0.447214
vn 0.723607 -0.525731 0.447214
vn 0.850651 -0.276393 0.447214
vn 0.894427 -0.000001 0.447214
vn 0.000000 0.000000 -1.000000
vn 0.000000 0.000000 -1.000000
vn 0.000000 0.000000 -1.000000
vn 0.000000 0.000000 -1.000000
vn 0.000000 0.000000 -1.000000
vn 0.000000 0.000000 -1.000000
vn 0.000000 0.000000 -1.000000
vn 0.000000 0.000000 -1.000000
vn 0.000000 0.000000 -1.000000
vn 0.000000 0.000000 -1.000000
vn 0.000000 0.000000 -1.000000
vn 0.000000 0.000000 -1.000000
vn 0.000000 0.000000 -1.000000
vn 0.000000 0.000000 -1.000000
vn 0.000000 0.000000 -1.000000
vn 0.000000 0.000000 -1.000000
vn 0.000000 0.000000 -1.000000
vn 0.000000 0.000000 -1.000000
vn 0.000000 0.000000 -1.000000
vn 0.000000 0.000000 -1.000000
vn 0.850651 0.276393 0.447214
vn 0.723607 0.525731 0.447214
vn 0.000000 0.000000 1.000000
vn 0.525731 0.723607 0.447214
vn 0.276393 0.850651 0.447214
vn 0.000000 0.894427 0.447214
vn -0.276393 0.850651 0.447214
vn -0.525731 0.723607 0.447214
vn -0.723607 0.525730 0.447214
vn -0.850651 0.276393 0.447214
vn -0.894427 0.000000 0.447214
vn -0.850651 -0.276393 0.447214
vn -0.723607 -0.525731 0.447214
vn -0.525731 -0.723607 0.447214
vn -0.276393 -0.850651 0.447213
vn -0.000000 -0.894427 0.447214
vn 0.276393 -0.850651 0.447213
vn 0.525731 -0.723607 0.447214
vn 0.723607 -0.525731 0.447214
vn 0.850651 -0.276393 0.447214
vn 0.894427 -0.000001 0.447214
s off
g pCone5
usemtl initialShadingGroup
f 1/1/1 20/20/2 19/19/3 18/18/4 17/17/5 16/16/6 15/15/7 14/14/8 13/13/9 12/12/10 11/11/11 10/10/12 9/9/13 8/8/14 7/7/15 6/6/16 5/5/17 4/4/18 3/3/19 2/2/20
s 1
f 1/21/21 2/22/22 21/42/23
f 2/22/22 3/23/24 21/42/23
f 3/23/24 4/24/25 21/42/23
f 4/24/25 5/25/26 21/42/23
f 5/25/26 6/26/27 21/42/23
f 6/26/27 7/27/28 21/42/23
f 7/27/28 8/28/29 21/42/23
f 8/28/29 9/29/30 21/42/23
f 9/29/30 10/30/31 21/42/23
f 10/30/31 11/31/32 21/42/23
f 11/31/32 12/32/33 21/42/23
f 12/32/33 13/33/34 21/42/23
f 13/33/34 14/34/35 21/42/23
f 14/34/35 15/35/36 21/42/23
f 15/35/36 16/36/37 21/42/23
f 16/36/37 17/37/38 21/42/23
f 17/37/38 18/38/39 21/42/23
f 18/38/39 19/39/40 21/42/23
f 19/39/40 20/40/41 21/42/23
f 20/40/41 1/41/21 21/42/23
s off
f 22/43/42 23/44/43 25/45/44 24/46/45
f 24/46/46 25/45/47 27/47/48 26/48/49
f 26/48/50 27/47/51 29/49/52 28/50/53
f 28/50/54 29/49/55 23/51/56 22/52/57
f 23/44/58 29/53/59 27/54/60 25/45/61
f 28/55/62 22/43/63 24/46/64 26/56/65
f 30/57/66 49/58/67 48/59/68 47/60/69 46/61/70 45/62/71 44/63/72 43/64/73 42/65/74 41/66/75 40/67/76 39/68/77 38/69/78 37/70/79 36/71/80 35/72/81 34/73/82 33/74/83 32/75/84 31/76/85
s 2
f 30/77/86 31/78/87 50/79/88
f 31/78/87 32/80/89 50/79/88
f 32/80/89 33/81/90 50/79/88
f 33/81/90 34/82/91 50/79/88
f 34/82/91 35/83/92 50/79/88
f 35/83/92 36/84/93 50/79/88
f 36/84/93 37/85/94 50/79/88
f 37/85/94 38/86/95 50/79/88
f 38/86/95 39/87/96 50/79/88
f 39/87/96 40/88/97 50/79/88
f 40/88/97 41/89/98 50/79/88
f 41/89/98 42/90/99 50/79/88
f 42/90/99 43/91/100 50/79/88
f 43/91/100 44/92/101 50/79/88
f 44/92/101 45/93/102 50/79/88
f 45/93/102 46/94/103 50/79/88
f 46/94/103 47/95/104 50/79/88
f 47/95/104 48/96/105 50/79/88
f 48/96/105 49/97/106 50/79/88
f 49/97/106 30/98/86 50/79/88
s off
f 51/99/107 70/100/108 69/101/109 68/102/110 67/103/111 66/104/112 65/105/113 64/106/114 63/107/115 62/108/116 61/109/117 60/110/118 59/111/119 58/112/120 57/113/121 56/114/122 55/115/123 54/116/124 53/117/125 52/118/126
s 3
f 51/119/127 52/120/128 71/121/129
f 52/120/128 53/122/130 71/121/129
f 53/122/130 54/123/131 71/121/129
f 54/123/131 55/124/132 71/121/129
f 55/124/132 56/125/133 71/121/129
f 56/125/133 57/126/134 71/121/129
f 57/126/134 58/127/135 71/121/129
f 58/127/135 59/128/136 71/121/129
f 59/128/136 60/129/137 71/121/129
f 60/129/137 61/130/138 71/121/129
f 61/130/138 62/131/139 71/121/129
f 62/131/139 63/132/140 71/121/129
f 63/132/140 64/133/141 71/121/129
f 64/133/141 65/134/142 71/121/129
f 65/134/142 66/135/143 71/121/129
f 66/135/143 67/136/144 71/121/129
f 67/136/144 68/137/145 71/121/129
f 68/137/145 69/138/146 71/121/129
f 69/138/146 70/139/147 71/121/129
f 70/139/147 51/140/127 71/121/129
s off
f 72/141/148 91/142/149 90/143/150 89/144/151 88/145/152 87/146/153 86/147/154 85/148/155 84/149/156 83/150/157 82/151/158 81/152/159 80/153/160 79/154/161 78/155/162 77/156/163 76/157/164 75/158/165 74/159/166 73/160/167
s 4
f 72/161/168 73/162/169 92/163/170
f 73/162/169 74/164/171 92/163/170
f 74/164/171 75/165/172 92/163/170
f 75/165/172 76/166/173 92/163/170
f 76/166/173 77/167/174 92/163/170
f 77/167/174 78/168/175 92/163/170
f 78/168/175 79/169/176 92/163/170
f 79/169/176 80/170/177 92/163/170
f 80/170/177 81/171/178 92/163/170
f 81/171/178 82/172/179 92/163/170
f 82/172/179 83/173/180 92/163/170
f 83/173/180 84/174/181 92/163/170
f 84/174/181 85/175/182 92/163/170
f 85/175/182 86/176/183 92/163/170
f 86/176/183 87/177/184 92/163/170
f 87/177/184 88/178/185 92/163/170
f 88/178/185 89/179/186 92/163/170
f 89/179/186 90/180/187 92/163/170
f 90/180/187 91/181/188 92/163/170
f 91/181/188 72/182/168 92/163/170
